<?xml version="1.0" encoding="UTF-8" standalone="no"?>
<!-- Uploaded to: SVG Repo, www.svgrepo.com, Generator: SVG Repo Mixer Tools -->

<svg
   width="800px"
   height="800px"
   viewBox="0 0 24 24"
   fill="none"
   version="1.1"
   id="svg5"
   sodipodi:docname="3d-cube-scan-loading.svg"
   inkscape:version="1.3.2 (091e20e, 2023-11-25)"
   xmlns:inkscape="http://www.inkscape.org/namespaces/inkscape"
   xmlns:sodipodi="http://sodipodi.sourceforge.net/DTD/sodipodi-0.dtd"
   xmlns="http://www.w3.org/2000/svg"
   xmlns:svg="http://www.w3.org/2000/svg">
  <defs
     id="defs5">
    <rect
       x="177.16263"
       y="688.35063"
       width="403.22953"
       height="38.754325"
       id="rect6" />
    <rect
       x="80.276817"
       y="660.66897"
       width="593.31027"
       height="79.354095"
       id="rect5" />
  </defs>
  <sodipodi:namedview
     id="namedview5"
     pagecolor="#ffffff"
     bordercolor="#000000"
     borderopacity="0.25"
     inkscape:showpageshadow="2"
     inkscape:pageopacity="0.0"
     inkscape:pagecheckerboard="0"
     inkscape:deskcolor="#d1d1d1"
     showgrid="false"
     inkscape:zoom="0.71396769"
     inkscape:cx="418.78646"
     inkscape:cy="418.08615"
     inkscape:window-width="1920"
     inkscape:window-height="1080"
     inkscape:window-x="0"
     inkscape:window-y="0"
     inkscape:window-maximized="0"
     inkscape:current-layer="svg5" />
  <g
     id="g5"
     transform="translate(0.16608997,-0.02768166)"
     inkscape:label="icon">
    <path
       opacity="0.4"
       d="m 19.768086,8.7843607 c -0.328706,0 -0.601292,-0.2725855 -0.601292,-0.6012916 V 6.579625 c 0,-2.0684429 -1.338876,-3.4073187 -3.407319,-3.4073187 H 7.7422547 c -2.0684429,0 -3.4073187,1.3388758 -3.4073187,3.4073187 v 1.6034441 c 0,0.3287061 -0.2725855,0.6012916 -0.6012916,0.6012916 -0.328706,0 -0.6012915,-0.2725855 -0.6012915,-0.6012916 V 6.579625 c 0,-2.7579238 1.851978,-4.6099018 4.6099018,-4.6099018 h 8.0172203 c 2.757924,0 4.609902,1.851978 4.609902,4.6099018 v 1.6034441 c 0,0.3287061 -0.272585,0.6012916 -0.601291,0.6012916 z"
       fill="#292d32"
       id="path1"
       style="stroke-width:0.801722" />
    <path
       opacity="0.4"
       d="M 15.759475,19.206747 H 7.7422547 c -2.7579238,0 -4.6099018,-1.851978 -4.6099018,-4.609902 v -1.603444 c 0,-0.328706 0.2725855,-0.601291 0.6012915,-0.601291 0.3287061,0 0.6012916,0.272585 0.6012916,0.601291 v 1.603444 c 0,2.068443 1.3388758,3.407319 3.4073187,3.407319 h 8.0172203 c 2.068443,0 3.407319,-1.338876 3.407319,-3.407319 v -1.603444 c 0,-0.328706 0.272586,-0.601291 0.601292,-0.601291 0.328706,0 0.601291,0.272585 0.601291,0.601291 v 1.603444 c 0,2.757924 -1.851978,4.609902 -4.609902,4.609902 z"
       fill="#292d32"
       id="path2"
       style="stroke-width:0.801722" />
    <path
       d="M 15.278362,7.5497007 12.263887,5.9221809 c -0.320689,-0.1683617 -0.697498,-0.1683617 -1.018187,0 L 8.231241,7.5497007 C 8.0147761,7.669959 7.8784833,7.9024263 7.8784833,8.1669946 c 0,0.2645683 0.1362928,0.4970837 0.3527577,0.617342 L 11.2457,10.411856 c 0.160344,0.08819 0.336723,0.128276 0.513102,0.128276 0.176379,0 0.352758,-0.04009 0.513102,-0.128276 l 3.014475,-1.6275194 c 0.216465,-0.1202583 0.352758,-0.3527737 0.352758,-0.617342 -0.008,-0.2645683 -0.14431,-0.4970356 -0.360775,-0.6172939 z"
       fill="#292d32"
       id="path3"
       style="stroke-width:0.801722" />
    <path
       d="M 10.740856,10.964964 7.9348524,9.5619509 C 7.7183875,9.457727 7.4698456,9.4658244 7.2613979,9.5941 7.0529501,9.7223755 6.9326998,9.9387603 6.9326998,10.179277 v 2.6537 c 0,0.456981 0.2565591,0.873957 0.6654374,1.074387 l 2.8059948,1.403014 c 0.09621,0.0481 0.200431,0.07207 0.312672,0.07207 0.128275,0 0.248534,-0.03207 0.360775,-0.104224 0.208448,-0.128271 0.328706,-0.344736 0.328706,-0.585252 v -2.6537 c 0,-0.456982 -0.248534,-0.86586 -0.665429,-1.074308 z"
       fill="#292d32"
       id="path4"
       style="stroke-width:0.801722" />
    <path
       d="M 16.232411,9.5941 C 16.023964,9.4658244 15.77543,9.457727 15.558965,9.5619509 l -2.806027,1.4030131 c -0.408879,0.208448 -0.66543,0.617326 -0.66543,1.074308 v 2.6537 c 0,0.240516 0.120259,0.456981 0.328706,0.585257 0.112241,0.07216 0.2325,0.104224 0.360775,0.104224 0.104224,0 0.208448,-0.02397 0.312672,-0.07207 l 2.806027,-1.403014 c 0.408878,-0.208447 0.665429,-0.617406 0.665429,-1.074387 v -2.653705 c 0,-0.2405167 -0.120258,-0.4569015 -0.328706,-0.585177 z"
       fill="#292d32"
       id="path5"
       style="stroke-width:0.801722" />
  </g>
  <text
     xml:space="preserve"
     transform="scale(0.03)"
     id="text5"
     style="white-space:pre;shape-inside:url(#rect5);display:inline;fill:#000000" />
  <text
     xml:space="preserve"
     transform="scale(0.03)"
     id="text6"
     style="white-space:pre;shape-inside:url(#rect6);display:inline;fill:#000000" />
  <text
     style="font-size:1.60036px;font-family:'DejaVu Sans Mono';-inkscape-font-specification:'DejaVu Sans Mono, Normal';fill:#000000;stroke-width:0.133364"
     x="7.3122268"
     y="22.090582"
     id="text57">l</text>
  <text
     style="font-size:1.60036px;font-family:'DejaVu Sans Mono';-inkscape-font-specification:'DejaVu Sans Mono, Normal';fill:#000000;stroke-width:0.133364"
     x="8.2757248"
     y="22.090582"
     id="text56">o</text>
  <text
     style="font-size:1.60036px;font-family:'DejaVu Sans Mono';-inkscape-font-specification:'DejaVu Sans Mono, Normal';fill:#000000;stroke-width:0.133364"
     x="9.2392228"
     y="22.090582"
     id="text55">a</text>
  <text
     style="font-size:1.60036px;font-family:'DejaVu Sans Mono';-inkscape-font-specification:'DejaVu Sans Mono, Normal';fill:#000000;stroke-width:0.133364"
     x="10.202721"
     y="22.090582"
     id="text54">d</text>
  <text
     style="font-size:1.60036px;font-family:'DejaVu Sans Mono';-inkscape-font-specification:'DejaVu Sans Mono, Normal';fill:#000000;stroke-width:0.133364"
     x="11.166219"
     y="22.090582"
     id="text53">i</text>
  <text
     style="font-size:1.60036px;font-family:'DejaVu Sans Mono';-inkscape-font-specification:'DejaVu Sans Mono, Normal';fill:#000000;stroke-width:0.133364"
     x="12.129717"
     y="22.090582"
     id="text52">n</text>
  <text
     style="font-size:1.60036px;font-family:'DejaVu Sans Mono';-inkscape-font-specification:'DejaVu Sans Mono, Normal';fill:#000000;stroke-width:0.133364"
     x="13.093215"
     y="22.090582"
     id="text51">g</text>
  <text
     style="font-size:1.60036px;font-family:'DejaVu Sans Mono';-inkscape-font-specification:'DejaVu Sans Mono, Normal';fill:#000000;stroke-width:0.133364"
     x="14.056713"
     y="22.090582"
     id="text50">.</text>
  <text
     style="font-size:1.60036px;font-family:'DejaVu Sans Mono';-inkscape-font-specification:'DejaVu Sans Mono, Normal';fill:#000000;stroke-width:0.133364"
     x="15.020211"
     y="22.090582"
     id="text49">.</text>
  <text
     style="font-size:1.60036px;font-family:'DejaVu Sans Mono';-inkscape-font-specification:'DejaVu Sans Mono, Normal';fill:#000000;stroke-width:0.133364"
     x="15.983709"
     y="22.090582"
     id="text48">.</text>
</svg>
